<svg width="24" height="24" viewBox="0 0 24 24" fill="none" xmlns="http://www.w3.org/2000/svg">
<path d="M12 0C8.8174 0 5.76516 1.26428 3.51472 3.51472C1.26428 5.76516 0 8.8174 0 12C0 15.1826 1.26428 18.2348 3.51472 20.4853C5.76516 22.7357 8.8174 24 12 24C15.1826 24 18.2348 22.7357 20.4853 20.4853C22.7357 18.2348 24 15.1826 24 12C24 8.8174 22.7357 5.76516 20.4853 3.51472C18.2348 1.26428 15.1826 0 12 0ZM2.25 12C2.25017 10.1012 2.80478 8.24378 3.84573 6.65575C4.88668 5.06772 6.36868 3.8182 8.10979 3.06059C9.85089 2.30298 11.7753 2.07025 13.6468 2.39097C15.5184 2.71169 17.2555 3.5719 18.645 4.866L9 9L4.866 18.645C3.1819 16.8425 2.24664 14.4668 2.25 12ZM13.7145 13.7145L7.713 16.287L10.2855 10.2855L13.7145 13.7145ZM12 21.75C9.53319 21.7534 7.15749 20.8181 5.355 19.134L15 15L19.134 5.355C20.4281 6.7445 21.2883 8.48164 21.609 10.3532C21.9298 12.2247 21.697 14.1491 20.9394 15.8902C20.1818 17.6313 18.9323 19.1133 17.3443 20.1543C15.7562 21.1952 13.8988 21.7498 12 21.75Z" fill="black"/>
</svg>
