<svg width="23" height="23" viewBox="0 0 23 23" fill="none" xmlns="http://www.w3.org/2000/svg">
<path d="M20.25 1H2.75C2.28587 1 1.84075 1.18437 1.51256 1.51256C1.18437 1.84075 1 2.28587 1 2.75V20.25C1 20.7141 1.18437 21.1592 1.51256 21.4874C1.84075 21.8156 2.28587 22 2.75 22H20.25C20.7141 22 21.1592 21.8156 21.4874 21.4874C21.8156 21.1592 22 20.7141 22 20.25V2.75C22 2.28587 21.8156 1.84075 21.4874 1.51256C21.1592 1.18437 20.7141 1 20.25 1Z" stroke="black" stroke-width="2" stroke-linecap="round" stroke-linejoin="round"/>
<path d="M1 6.25H22M16.75 1L13.25 6.25M9.75 1L6.25 6.25M9.45833 13.8333V10.2972L12.5208 12.0647L15.5833 13.8333L12.5208 15.6014L9.45833 17.3695V13.8333Z" stroke="black" stroke-width="2" stroke-linecap="round" stroke-linejoin="round"/>
</svg>
