<svg width="23" height="24" viewBox="0 0 23 24" fill="none" xmlns="http://www.w3.org/2000/svg">
<path d="M22.2906 9.76235L12.1764 0.457284C11.8476 0.154783 11.4146 -0.0089259 10.9679 0.000375732C10.5212 0.00967736 10.0954 0.19127 9.77949 0.507196L0.477373 9.80936L0 10.2867V24H8.96379V15.4437H13.8531V24H22.8169V10.2466L22.2906 9.76235ZM11.0029 1.62981C11.0173 1.62981 11.0084 1.63292 11.0023 1.63898C10.9959 1.63292 10.9886 1.62981 11.0029 1.62981ZM21.1871 22.3702H15.4829V15.4437C15.4829 15.0114 15.3112 14.5969 15.0056 14.2912C14.6999 13.9856 14.2854 13.8139 13.8531 13.8139H8.96379C8.53154 13.8139 8.117 13.9856 7.81136 14.2912C7.50572 14.5969 7.33401 15.0114 7.33401 15.4437V22.3702H1.62978V10.9618L11.0029 1.6596C11.0036 1.65899 11.0037 1.65843 11.0042 1.65782L21.1871 10.9618V22.3702Z" fill="black"/>
</svg>
