<svg width="21" height="21" viewBox="0 0 21 21" fill="none" xmlns="http://www.w3.org/2000/svg">
<path d="M19.2618 7.68218L4.55754 0.330077C3.97724 0.0412538 3.32198 -0.0615692 2.68111 0.0356268C2.04023 0.132823 1.44493 0.425308 0.976362 0.873204C0.507794 1.3211 0.188764 1.90261 0.0627698 2.53845C-0.0632244 3.17429 0.00994865 3.83352 0.272312 4.42625L2.79303 10.0664C2.85023 10.2027 2.87969 10.3491 2.87969 10.497C2.87969 10.6449 2.85023 10.7913 2.79303 10.9276L0.272312 16.5677C0.0587864 17.0474 -0.0314811 17.5729 0.00971312 18.0963C0.0509074 18.6197 0.222257 19.1246 0.508191 19.565C0.794125 20.0054 1.18558 20.3673 1.64697 20.6179C2.10836 20.8685 2.62507 20.9999 3.15014 21C3.64192 20.9951 4.12638 20.8803 4.56804 20.6639L19.2723 13.3118C19.7938 13.0494 20.2323 12.6473 20.5386 12.1502C20.8449 11.6532 21.0072 11.0808 21.0072 10.497C21.0072 9.91314 20.8449 9.34076 20.5386 8.84373C20.2323 8.3467 19.7938 7.94456 19.2723 7.68218H19.2618ZM18.327 11.4318L3.62277 18.7839C3.42969 18.8766 3.21287 18.908 3.0014 18.874C2.78993 18.84 2.59391 18.7422 2.43962 18.5936C2.28534 18.445 2.18016 18.2528 2.1382 18.0428C2.09624 17.8328 2.1195 17.6149 2.20487 17.4185L4.71509 11.7784C4.74758 11.703 4.77564 11.6259 4.79911 11.5473H12.0357C12.3142 11.5473 12.5814 11.4366 12.7784 11.2397C12.9753 11.0427 13.086 10.7755 13.086 10.497C13.086 10.2184 12.9753 9.95129 12.7784 9.75432C12.5814 9.55735 12.3142 9.44669 12.0357 9.44669H4.79911C4.77564 9.36809 4.74758 9.29094 4.71509 9.21562L2.20487 3.57551C2.1195 3.37906 2.09624 3.16121 2.1382 2.95118C2.18016 2.74114 2.28534 2.54895 2.43962 2.40038C2.59391 2.2518 2.78993 2.15396 3.0014 2.11995C3.21287 2.08594 3.42969 2.1174 3.62277 2.21012L18.327 9.56222C18.499 9.65036 18.6434 9.78427 18.7442 9.9492C18.845 10.1141 18.8984 10.3037 18.8984 10.497C18.8984 10.6903 18.845 10.8798 18.7442 11.0448C18.6434 11.2097 18.499 11.3436 18.327 11.4318Z" fill="black"/>
</svg>
