<svg width="24" height="24" viewBox="0 0 24 24" fill="none" xmlns="http://www.w3.org/2000/svg">
<path d="M4.92269 11.9991C4.92269 11.718 5.03437 11.4484 5.23316 11.2496C5.43196 11.0508 5.70158 10.9391 5.98272 10.9391H10.9197V6.00217C10.9197 5.72103 11.0313 5.45141 11.2301 5.25262C11.4289 5.05382 11.6986 4.94214 11.9797 4.94214C12.2608 4.94214 12.5305 5.05382 12.7292 5.25262C12.928 5.45141 13.0397 5.72103 13.0397 6.00217V10.9391H17.9767C18.2578 10.9391 18.5274 11.0508 18.7262 11.2496C18.925 11.4484 19.0367 11.718 19.0367 11.9991C19.0367 12.2803 18.925 12.5499 18.7262 12.7487C18.5274 12.9475 18.2578 13.0592 17.9767 13.0592H13.0397V17.9961C13.0397 18.2773 12.928 18.5469 12.7292 18.7457C12.5305 18.9445 12.2608 19.0561 11.9797 19.0561C11.6986 19.0561 11.4289 18.9445 11.2301 18.7457C11.0313 18.5469 10.9197 18.2773 10.9197 17.9961V13.0592H5.98272C5.70158 13.0592 5.43196 12.9475 5.23316 12.7487C5.03437 12.5499 4.92269 12.2803 4.92269 11.9991Z" fill="black"/>
<path fill-rule="evenodd" clip-rule="evenodd" d="M5.36083 0.365756C9.75993 -0.121919 14.1994 -0.121919 18.5985 0.365756C21.1808 0.654086 23.2655 2.68794 23.568 5.28432C24.0909 9.74636 24.0909 14.2536 23.568 18.7157C23.2641 21.312 21.1794 23.3445 18.5985 23.6342C14.1995 24.1219 9.75993 24.1219 5.36083 23.6342C2.77859 23.3445 0.693851 21.312 0.391388 18.7157C-0.130463 14.2538 -0.130463 9.74623 0.391388 5.28432C0.693851 2.68794 2.78 0.654086 5.36083 0.365756ZM18.3639 2.47169C14.1208 2.00137 9.83862 2.00137 5.59545 2.47169C4.80996 2.55883 4.07678 2.90825 3.51436 3.46348C2.95194 4.01872 2.59314 4.74735 2.49591 5.53166C1.99324 9.8297 1.99324 14.1717 2.49591 18.4697C2.59343 19.2538 2.95237 19.9821 3.51476 20.537C4.07715 21.092 4.81017 21.4412 5.59545 21.5283C9.80308 21.9975 14.1563 21.9975 18.3639 21.5283C19.149 21.4409 19.8816 21.0916 20.4438 20.5366C21.0059 19.9817 21.3646 19.2536 21.4621 18.4697C21.9647 14.1717 21.9647 9.8297 21.4621 5.53166C21.3643 4.74807 21.0054 4.02026 20.4434 3.46561C19.8813 2.91097 19.1487 2.56183 18.3639 2.47452V2.47169Z" fill="black"/>
</svg>
