<svg width="28" height="28" viewBox="0 0 28 28" fill="none" xmlns="http://www.w3.org/2000/svg">
<path fill-rule="evenodd" clip-rule="evenodd" d="M14 2.3335C20.4435 2.3335 25.6667 7.55666 25.6667 14.0002C25.6708 16.6927 24.7396 19.3031 23.0323 21.3852L23.0557 21.4108L22.9017 21.5415C21.8076 22.8356 20.4442 23.8752 18.9067 24.5878C17.3692 25.3003 15.6946 25.6686 14 25.6668C10.5583 25.6668 7.46668 24.177 5.33168 21.8087L5.09835 21.5403L4.94435 21.412L4.96768 21.384C3.26057 19.3023 2.32941 16.6923 2.33335 14.0002C2.33335 7.55666 7.55651 2.3335 14 2.3335ZM14 19.8335C11.83 19.8335 9.86885 20.5242 8.40818 21.4727C10.0209 22.6832 11.9835 23.3364 14 23.3335C16.0165 23.3364 17.9792 22.6832 19.5918 21.4727C17.9227 20.4036 15.9822 19.8347 14 19.8335ZM14 4.66683C12.2436 4.66678 10.5229 5.16233 9.03552 6.09652C7.54818 7.03071 6.35462 8.36563 5.59203 9.94783C4.82945 11.53 4.52879 13.2953 4.72461 15.0407C4.92043 16.7862 5.60478 18.4409 6.69902 19.8148C8.59018 18.458 11.1708 17.5002 14 17.5002C16.8292 17.5002 19.4098 18.458 21.301 19.8148C22.3952 18.4409 23.0796 16.7862 23.2754 15.0407C23.4712 13.2953 23.1706 11.53 22.408 9.94783C21.6454 8.36563 20.4518 7.03071 18.9645 6.09652C17.4772 5.16233 15.7564 4.66678 14 4.66683ZM14 7.00016C15.2377 7.00016 16.4247 7.49183 17.2998 8.367C18.175 9.24217 18.6667 10.4292 18.6667 11.6668C18.6667 12.9045 18.175 14.0915 17.2998 14.9667C16.4247 15.8418 15.2377 16.3335 14 16.3335C12.7623 16.3335 11.5754 15.8418 10.7002 14.9667C9.82501 14.0915 9.33335 12.9045 9.33335 11.6668C9.33335 10.4292 9.82501 9.24217 10.7002 8.367C11.5754 7.49183 12.7623 7.00016 14 7.00016ZM14 9.3335C13.3812 9.3335 12.7877 9.57933 12.3501 10.0169C11.9125 10.4545 11.6667 11.048 11.6667 11.6668C11.6667 12.2857 11.9125 12.8792 12.3501 13.3167C12.7877 13.7543 13.3812 14.0002 14 14.0002C14.6189 14.0002 15.2123 13.7543 15.6499 13.3167C16.0875 12.8792 16.3333 12.2857 16.3333 11.6668C16.3333 11.048 16.0875 10.4545 15.6499 10.0169C15.2123 9.57933 14.6189 9.3335 14 9.3335Z" fill="black"/>
</svg>
