<svg width="13" height="7" viewBox="0 0 13 7" fill="none" xmlns="http://www.w3.org/2000/svg">
<path d="M11.9022 0.151032L6.39444 5.51998L0.886633 0.151032C0.788227 0.0549134 0.656124 0.00110192 0.518565 0.00110192C0.381005 0.00110192 0.248903 0.0549134 0.150496 0.151032C0.102848 0.197718 0.0649946 0.253441 0.0391526 0.31494C0.0133107 0.376438 0 0.442475 0 0.509182C0 0.57589 0.0133107 0.641926 0.0391526 0.703424C0.0649946 0.764923 0.102848 0.820647 0.150496 0.867332L6.00984 6.5801C6.11274 6.6804 6.25074 6.73653 6.39444 6.73653C6.53813 6.73653 6.67614 6.6804 6.77903 6.5801L12.6384 0.868435C12.6864 0.821714 12.7245 0.765854 12.7505 0.704151C12.7766 0.642449 12.79 0.576155 12.79 0.509182C12.79 0.442209 12.7766 0.375915 12.7505 0.314213C12.7245 0.25251 12.6864 0.19665 12.6384 0.14993C12.54 0.0538109 12.4079 0 12.2703 0C12.1327 0 12.0006 0.0538109 11.9022 0.14993V0.151032Z" fill="black"/>
</svg>
