<svg width="111" height="32" viewBox="0 0 111 32" fill="none" xmlns="http://www.w3.org/2000/svg">
<path d="M5.68014 0.108942C3.42109 1.05522 0.938024 3.72516 0.153727 7.07907C-0.839673 11.3271 3.29351 13.1241 3.63279 12.5357C4.03175 11.8435 2.89217 11.6096 2.65755 9.40518C2.35439 6.55814 3.67798 3.37701 5.34388 1.98117C5.65311 1.72167 5.63862 2.0828 5.63862 2.75034C5.63862 3.94421 5.57266 14.662 5.57266 16.8988C5.57266 19.9254 5.44768 20.8811 5.22301 21.8257C4.99574 22.7826 4.62986 23.4293 4.90687 23.6784C5.21652 23.957 6.5386 23.2942 7.30387 22.2262C8.22159 20.9452 8.54292 19.4064 8.60065 17.7359C8.67028 15.7218 8.66725 12.5258 8.67028 10.7029C8.67288 9.03109 8.69839 4.13558 8.64087 1.19253C8.62682 0.470282 6.62488 -0.286997 5.68014 0.108942ZM85.8923 14.2734C85.8194 15.847 85.4711 17.0768 85.0388 17.9444C84.202 19.6239 82.4656 20.1453 81.7282 17.7311C81.3264 16.4151 81.3076 14.2172 81.5963 12.3807C81.8904 10.51 82.7117 9.09704 84.0711 9.22441C85.4123 9.35047 86.04 11.0782 85.8923 14.2734ZM63.2846 24.0359C63.2664 26.6503 62.8549 28.9424 61.9726 29.6084C60.7211 30.5526 59.0389 29.8442 59.3873 27.9365C59.6954 26.2483 61.1531 24.5242 63.2882 22.4175C63.2882 22.4175 63.2926 22.898 63.2846 24.0359ZM62.9429 14.2581C62.8664 15.6913 62.4949 17.1309 62.0894 17.9444C61.2526 19.6239 59.5036 20.1489 58.7788 17.7311C58.2832 16.0791 58.4019 13.9413 58.6469 12.5941C58.9652 10.8462 59.7367 9.22462 61.1217 9.22462C62.4685 9.22462 63.1328 10.7022 62.9429 14.2581ZM49.8464 14.2365C49.7643 15.754 49.4682 17.0227 48.9931 17.9444C48.1334 19.6125 46.4324 20.1414 45.6825 17.7311C45.1417 15.9932 45.3257 13.6236 45.5506 12.3435C45.8845 10.4438 46.7205 9.09704 48.0255 9.22462C49.3659 9.35566 50.0175 11.0785 49.8464 14.2365ZM109.864 16.0092C109.536 16.0092 109.387 16.347 109.263 16.9153C108.834 18.8926 108.383 19.3387 107.801 19.3387C107.152 19.3387 106.568 18.36 106.417 16.4004C106.3 14.8595 106.319 12.0228 106.469 9.20105C106.5 8.62131 106.34 8.04762 104.785 7.48279C104.116 7.23974 103.144 6.88186 102.659 8.05086C101.291 11.3537 100.756 13.9759 100.63 15.0407C100.623 15.0958 100.555 15.1073 100.544 14.9784C100.463 14.1253 100.284 12.5749 100.262 9.31782C100.257 8.68229 100.123 8.14147 99.4213 7.6986C98.9661 7.411 97.5841 6.90283 97.0865 7.50766C96.6554 8.00199 96.1558 9.33274 95.6371 10.9104C95.2154 12.1928 94.9218 13.0599 94.9218 13.0599C94.9218 13.0599 94.9274 9.60045 94.9324 8.28808C94.9345 7.7931 94.595 7.62811 94.4925 7.59827C94.032 7.46463 93.1238 7.24125 92.7384 7.24125C92.2627 7.24125 92.1464 7.5068 92.1464 7.8943C92.1464 7.94512 92.0713 12.449 92.0713 15.5984C92.0713 15.7352 92.0713 15.8844 92.072 16.0432C91.809 17.4907 90.956 19.4555 90.0283 19.4555C89.0993 19.4555 88.6612 18.6342 88.6612 14.8796C88.6612 12.6892 88.727 11.7367 88.7592 10.1525C88.778 9.23997 88.8143 8.53935 88.8122 8.38041C88.8052 7.89279 87.9624 7.64692 87.5699 7.5561C87.1757 7.46463 86.8332 7.42895 86.5657 7.4443C86.187 7.46593 85.9191 7.71396 85.9191 8.05562C85.9191 8.23899 85.9213 8.58714 85.9213 8.58714C85.4337 7.82078 84.6494 7.28753 84.1276 7.13291C82.722 6.71557 81.2555 7.08534 80.1492 8.63342C79.27 9.86318 78.74 11.2564 78.5313 13.2577C78.3789 14.7211 78.4286 16.2047 78.6998 17.4595C78.3722 18.8755 77.7643 19.4555 77.0985 19.4555C76.1319 19.4555 75.4313 17.8782 75.5126 15.1497C75.5663 13.3551 75.9254 12.0957 76.3179 10.2736C76.4853 9.49687 76.3493 9.09034 76.0083 8.70067C75.6954 8.34322 75.0287 8.16049 74.0708 8.38495C73.3883 8.54519 72.4124 8.71753 71.5196 8.84987C71.5196 8.84987 71.5736 8.63471 71.6177 8.25586C71.85 6.26859 69.6904 6.42969 69.0013 7.06436C68.5902 7.44344 68.3102 7.89041 68.204 8.69396C68.0353 9.96936 69.0754 10.5709 69.0754 10.5709C68.7344 12.1331 67.8978 14.1735 67.0341 15.649C66.5716 16.4393 66.2178 17.0251 65.7609 17.6477C65.746 15.1493 65.7623 12.6507 65.8098 10.1527C65.8286 9.24019 65.8652 8.55816 65.8632 8.39901C65.858 8.04264 65.6498 7.90771 65.2167 7.73731C64.8335 7.58637 64.3807 7.48214 63.9108 7.44538C63.3179 7.39954 62.9606 7.71374 62.9702 8.08568C62.9719 8.15595 62.9719 8.58714 62.9719 8.58714C62.4843 7.82078 61.7 7.28753 61.1782 7.13291C59.7726 6.71557 58.3061 7.08534 57.1998 8.63342C56.3208 9.86318 55.7452 11.5892 55.5819 13.2426C55.4301 14.7833 55.458 16.0927 55.6652 17.1959C55.4418 18.3005 54.7991 19.4557 54.0728 19.4557C53.1438 19.4557 52.6154 18.6342 52.6154 14.8796C52.6154 12.6892 52.6811 11.7367 52.7135 10.1525C52.7323 9.24019 52.7685 8.53935 52.7665 8.38041C52.7596 7.89279 51.9165 7.64714 51.524 7.5561C51.1136 7.46095 50.7592 7.42635 50.4869 7.44646C50.128 7.47306 49.8754 7.79461 49.8754 8.03443V8.58714C49.3878 7.82078 48.6035 7.28753 48.0817 7.13291C46.6762 6.71557 45.2178 7.0914 44.1033 8.63342C43.3768 9.63873 42.7884 10.7532 42.4857 13.2206C42.3981 13.9335 42.3594 14.6015 42.3646 15.2253C42.0748 16.9977 40.7947 19.0403 39.7479 19.0403C39.1353 19.0403 38.5516 17.8518 38.5516 15.3194C38.5516 11.946 38.7605 7.14286 38.796 6.6801C38.796 6.6801 40.1187 6.65761 40.3747 6.65459C41.0347 6.64723 41.6322 6.66302 42.5112 6.61782C42.9519 6.59555 43.3766 5.01331 42.9216 4.81761C42.7153 4.72895 41.2581 4.65154 40.6803 4.63921C40.1946 4.6284 38.8423 4.52806 38.8423 4.52806C38.8423 4.52806 38.9636 1.34001 38.9919 1.00332C39.0157 0.722421 38.6524 0.577971 38.4444 0.490393C37.9379 0.276313 37.4849 0.173599 36.948 0.0628827C36.2059 -0.0902166 35.8694 0.059639 35.8037 0.685659C35.7046 1.63604 35.6534 4.41973 35.6534 4.41973C35.1089 4.41973 33.2488 4.31333 32.7043 4.31333C32.1983 4.31333 31.6521 6.48959 32.3519 6.51641C33.1567 6.54755 34.5594 6.57479 35.4893 6.60247C35.4893 6.60247 35.4477 11.4848 35.4477 12.9924C35.4477 13.1524 35.4486 13.3071 35.4495 13.4569C34.9376 16.1243 33.1351 17.5653 33.1351 17.5653C33.5221 15.8005 32.7314 14.4752 31.307 13.3533C30.7822 12.9401 29.7462 12.1575 28.5871 11.2999C28.5871 11.2999 29.2584 10.6382 29.8539 9.30701C30.2755 8.36376 30.2939 7.28493 29.2584 7.04685C27.5475 6.65329 26.1369 7.90987 25.7161 9.25144C25.3901 10.2907 25.5639 11.0616 26.2027 11.8626C26.2492 11.9212 26.3 11.9811 26.3519 12.0412C25.9659 12.7855 25.4353 13.7878 24.9859 14.5649C23.7386 16.723 22.7965 18.4296 22.0844 18.4296C21.5153 18.4296 21.5229 16.6966 21.5229 15.0742C21.5229 13.6755 21.6262 11.5726 21.7088 9.39567C21.7361 8.67558 21.3758 8.26537 20.7725 7.89387C20.4058 7.66811 19.6232 7.22438 19.17 7.22438C18.4914 7.22438 16.534 7.31672 14.6847 12.6665C14.4516 13.3408 13.9936 14.5695 13.9936 14.5695L14.0332 8.13606C14.0332 7.98512 13.9528 7.83938 13.7688 7.73969C13.4572 7.57037 12.6249 7.22438 11.8847 7.22438C11.5322 7.22438 11.356 7.38829 11.356 7.71525L11.2915 17.7805C11.2915 18.5453 11.3114 19.4375 11.3871 19.8276C11.4624 20.2181 11.5845 20.536 11.7355 20.725C11.8866 20.9138 12.0611 21.058 12.3489 21.1173C12.6169 21.1724 14.0838 21.3608 14.1601 20.8003C14.2514 20.1282 14.2551 19.4016 15.0253 16.6912C16.2246 12.4715 17.788 10.4129 18.5232 9.68154C18.6519 9.55396 18.7985 9.54617 18.7913 9.75528C18.7602 10.6804 18.6497 12.9924 18.5755 14.9559C18.3764 20.2117 19.3324 21.1858 20.6988 21.1858C21.7441 21.1858 23.2175 20.1472 24.7969 17.5181C25.677 16.053 26.5529 14.5854 27.4249 13.1155C27.9034 13.5585 28.4408 14.0354 28.9775 14.5448C30.2252 15.729 30.6347 16.8543 30.3629 17.9217C30.1553 18.7375 29.3723 19.5785 27.9791 18.7613C27.573 18.5228 27.3996 18.3384 26.9913 18.0696C26.772 17.9253 26.4371 17.8821 26.2362 18.0335C25.7146 18.4266 25.4162 18.927 25.2458 19.5463C25.0802 20.1489 25.6837 20.4675 26.3095 20.7462C26.8482 20.986 28.0061 21.2033 28.7444 21.228C31.6214 21.3242 33.9263 19.8389 35.5308 16.0073C35.8179 19.3164 37.0401 21.1889 39.1638 21.1889C40.5836 21.1889 42.0071 19.3536 42.6297 17.5482C42.8083 18.2841 43.073 18.9242 43.4146 19.4654C45.0509 22.0581 48.2253 21.5002 49.8198 19.2985C50.3128 18.6182 50.3879 18.3738 50.3879 18.3738C50.6206 20.4526 52.2947 21.1789 53.253 21.1789C54.3267 21.1789 55.4349 20.6714 56.2118 18.9224C56.3029 19.1123 56.4023 19.2937 56.5109 19.4654C58.1472 22.0581 61.3218 21.5002 62.9163 19.2985C62.9916 19.1951 63.0569 19.1017 63.1137 19.0174L63.1604 20.3829L61.6924 21.7295C59.2316 23.9849 57.3624 25.6953 57.2249 27.6876C57.0498 30.2278 59.1088 31.1719 60.6687 31.2956C62.3223 31.4268 63.741 30.5126 64.6116 29.2331C65.378 28.1067 65.8796 25.6826 65.8427 23.2886C65.8282 22.3297 65.8037 21.1108 65.7849 19.804C66.6488 18.8009 67.6221 17.5329 68.5182 16.049C69.4947 14.4317 70.5413 12.2598 71.0772 10.5694C71.0772 10.5694 71.9864 10.5774 72.9569 10.5139C73.2672 10.4935 73.3565 10.5571 73.299 10.7844C73.2298 11.0594 72.0729 15.5212 73.1288 18.4934C73.8513 20.5282 75.4802 21.1826 76.4459 21.1826C77.5766 21.1826 78.658 20.3289 79.2376 19.0613C79.3076 19.2025 79.3805 19.3391 79.4603 19.4656C81.0966 22.0584 84.2599 21.4968 85.8657 19.2985C86.2281 18.8024 86.4338 18.3738 86.4338 18.3738C86.7782 20.5254 88.4515 21.1899 89.4099 21.1899C90.408 21.1899 91.3556 20.7806 92.1241 18.9618C92.1565 19.7627 92.2069 20.4175 92.2867 20.6238C92.3353 20.7503 92.619 20.9086 92.8253 20.9852C93.7387 21.3238 94.6699 21.1638 95.0145 21.0941C95.2533 21.0457 95.4394 20.8541 95.465 20.3598C95.532 19.0613 95.4909 16.8796 95.8845 15.258C96.5451 12.537 97.1616 11.4815 97.4539 10.9591C97.6176 10.6661 97.8021 10.6179 97.8088 10.9277C97.8226 11.5548 97.8538 13.3957 98.1098 15.8695C98.2979 17.6885 98.5487 18.7639 98.7418 19.1045C99.2928 20.0776 99.9729 20.1236 100.527 20.1236C100.879 20.1236 101.616 20.0263 101.55 19.407C101.518 19.1051 101.574 17.2394 102.226 14.5587C102.651 12.808 103.36 11.2264 103.616 10.6479C103.711 10.4347 103.755 10.6027 103.753 10.6356C103.699 11.8411 103.578 15.7845 104.069 17.9413C104.735 20.863 106.661 21.1899 107.332 21.1899C108.765 21.1899 109.937 20.1001 110.332 17.2323C110.427 16.542 110.286 16.0092 109.864 16.0092Z" fill="black"/>
</svg>
