<svg width="24" height="6" viewBox="0 0 24 6" fill="none" xmlns="http://www.w3.org/2000/svg">
<path d="M5.33333 2.66667C5.33333 3.37391 5.05238 4.05219 4.55229 4.55228C4.05219 5.05238 3.37391 5.33333 2.66667 5.33333C1.95942 5.33333 1.28115 5.05238 0.781048 4.55228C0.280951 4.05219 0 3.37391 0 2.66667C0 1.95942 0.280951 1.28115 0.781048 0.781049C1.28115 0.280952 1.95942 0 2.66667 0C3.37391 0 4.05219 0.280952 4.55229 0.781049C5.05238 1.28115 5.33333 1.95942 5.33333 2.66667ZM14.6667 2.66667C14.6667 3.37391 14.3857 4.05219 13.8856 4.55228C13.3855 5.05238 12.7072 5.33333 12 5.33333C11.2928 5.33333 10.6145 5.05238 10.1144 4.55228C9.61429 4.05219 9.33333 3.37391 9.33333 2.66667C9.33333 1.95942 9.61429 1.28115 10.1144 0.781049C10.6145 0.280952 11.2928 0 12 0C12.7072 0 13.3855 0.280952 13.8856 0.781049C14.3857 1.28115 14.6667 1.95942 14.6667 2.66667ZM24 2.66667C24 3.37391 23.719 4.05219 23.219 4.55228C22.7189 5.05238 22.0406 5.33333 21.3333 5.33333C20.6261 5.33333 19.9478 5.05238 19.4477 4.55228C18.9476 4.05219 18.6667 3.37391 18.6667 2.66667C18.6667 1.95942 18.9476 1.28115 19.4477 0.781049C19.9478 0.280952 20.6261 0 21.3333 0C22.0406 0 22.7189 0.280952 23.219 0.781049C23.719 1.28115 24 1.95942 24 2.66667Z" fill="black"/>
</svg>
