<svg width="29" height="27" viewBox="0 0 29 27" fill="none" xmlns="http://www.w3.org/2000/svg">
<path d="M14.645 22.5475L14.5 22.6925L14.3405 22.5475C7.453 16.298 2.9 12.1655 2.9 7.975C2.9 5.075 5.075 2.9 7.975 2.9C10.208 2.9 12.383 4.35 13.1515 6.322H15.8485C16.617 4.35 18.792 2.9 21.025 2.9C23.925 2.9 26.1 5.075 26.1 7.975C26.1 12.1655 21.547 16.298 14.645 22.5475ZM21.025 0C18.502 0 16.0805 1.1745 14.5 3.016C12.9195 1.1745 10.498 0 7.975 0C3.509 0 0 3.4945 0 7.975C0 13.4415 4.93 17.922 12.3975 24.6935L14.5 26.6075L16.6025 24.6935C24.07 17.922 29 13.4415 29 7.975C29 3.4945 25.491 0 21.025 0Z" fill="#7F7F7F"/>
</svg>
