<svg width="17" height="17" viewBox="0 0 17 17" fill="none" xmlns="http://www.w3.org/2000/svg">
<path d="M16.04 15.2011L11.5595 10.7206C12.6362 9.42799 13.1731 7.77006 13.0585 6.09168C12.944 4.41331 12.1867 2.84372 10.9444 1.70943C9.70204 0.575134 8.0702 -0.0365261 6.38836 0.0016886C4.70652 0.0399033 3.10415 0.725051 1.9146 1.9146C0.725051 3.10415 0.0399033 4.70652 0.0016886 6.38836C-0.0365261 8.0702 0.575134 9.70204 1.70943 10.9444C2.84372 12.1867 4.41331 12.944 6.09168 13.0585C7.77006 13.1731 9.42799 12.6362 10.7206 11.5595L15.2011 16.04L16.04 15.2011ZM1.20779 6.54739C1.20779 5.49132 1.52095 4.45896 2.10768 3.58087C2.6944 2.70278 3.52833 2.01839 4.50401 1.61425C5.4797 1.2101 6.55331 1.10436 7.58909 1.31039C8.62487 1.51642 9.5763 2.02497 10.3231 2.77172C11.0698 3.51848 11.5784 4.4699 11.7844 5.50568C11.9904 6.54146 11.8847 7.61508 11.4805 8.59076C11.0764 9.56645 10.392 10.4004 9.51391 10.9871C8.63582 11.5738 7.60346 11.887 6.54739 11.887C5.13172 11.8854 3.77449 11.3223 2.77346 10.3213C1.77243 9.32029 1.20936 7.96305 1.20779 6.54739Z" fill="#8E8E8E"/>
</svg>
