<svg width="12" height="12" viewBox="0 0 12 12" fill="none" xmlns="http://www.w3.org/2000/svg">
<path d="M6 0C2.6915 0 0 2.6915 0 6C0 9.3085 2.6915 12 6 12C9.3085 12 12 9.3085 12 6C12 2.6915 9.3085 0 6 0ZM6 1C8.7675 1 11 3.2325 11 6C11 8.7675 8.7675 11 6 11C3.2325 11 1 8.7675 1 6C1 3.2325 3.2325 1 6 1ZM3.75 4C3.55109 4 3.36032 4.07902 3.21967 4.21967C3.07902 4.36032 3 4.55109 3 4.75C3 4.94891 3.07902 5.13968 3.21967 5.28033C3.36032 5.42098 3.55109 5.5 3.75 5.5C3.94891 5.5 4.13968 5.42098 4.28033 5.28033C4.42098 5.13968 4.5 4.94891 4.5 4.75C4.5 4.55109 4.42098 4.36032 4.28033 4.21967C4.13968 4.07902 3.94891 4 3.75 4ZM8.25 4C8.05109 4 7.86032 4.07902 7.71967 4.21967C7.57902 4.36032 7.5 4.55109 7.5 4.75C7.5 4.94891 7.57902 5.13968 7.71967 5.28033C7.86032 5.42098 8.05109 5.5 8.25 5.5C8.44891 5.5 8.63968 5.42098 8.78033 5.28033C8.92098 5.13968 9 4.94891 9 4.75C9 4.55109 8.92098 4.36032 8.78033 4.21967C8.63968 4.07902 8.44891 4 8.25 4ZM3.406 7.5L2.547 8C3.2385 9.1935 4.5235 10 6 10C7.4765 10 8.7615 9.1935 9.453 8L8.594 7.5C8.33194 7.95624 7.95406 8.33522 7.49858 8.5986C7.0431 8.86199 6.52615 9.00045 6 9C5.47385 9.00045 4.9569 8.86199 4.50142 8.5986C4.04594 8.33522 3.66806 7.95624 3.406 7.5Z" fill="#737373"/>
</svg>
