<svg width="22" height="23" viewBox="0 0 22 23" fill="none" xmlns="http://www.w3.org/2000/svg">
<path d="M16.0271 17.9562L11.6987 15.5585C13.3074 14.2929 13.7443 11.8055 13.7443 10.411V7.50803C13.7443 5.58582 11.1903 3.44498 8.62492 3.44498C6.06024 3.44498 3.4385 5.58616 3.4385 7.50803V10.411C3.4385 11.679 3.97506 14.2444 5.60031 15.5475L1.16014 17.9562C1.16014 17.9562 0 18.4731 0 19.1177V20.8598C0 21.5008 0.520408 22.0213 1.16014 22.0213H16.0271C16.6675 22.0213 17.1879 21.5008 17.1879 20.8598V19.1177C17.1879 18.4343 16.0271 17.9562 16.0271 17.9562L16.0271 17.9562ZM15.813 20.6463H1.37502V19.4171C1.47368 19.3453 1.61152 19.2621 1.72014 19.2122C1.75243 19.1975 1.78474 19.182 1.81534 19.1645L6.25583 16.7562C6.66076 16.5365 6.92923 16.1292 6.97013 15.6706C7.01104 15.2121 6.81957 14.7628 6.4607 14.4748C5.30778 13.5504 4.81382 11.5031 4.81382 10.411V7.5081C4.81382 6.52052 6.67554 4.82002 8.62526 4.82002C10.6111 4.82002 12.3697 6.49717 12.3697 7.5081V10.411C12.3697 11.488 12.0352 13.5442 10.8489 14.4775C10.6701 14.6183 10.529 14.8012 10.4382 15.0099C10.3474 15.2186 10.3097 15.4466 10.3285 15.6734C10.3477 15.9001 10.4227 16.1185 10.5468 16.3091C10.671 16.4998 10.8405 16.6567 11.0401 16.7658L15.3685 19.1634C15.4067 19.1844 15.4551 19.2071 15.4954 19.2246C15.5968 19.2676 15.7215 19.3394 15.813 19.4027V20.6463ZM20.8389 14.5328L16.4461 12.1352C18.0549 10.8695 18.5564 8.38222 18.5564 6.98763V4.08471C18.5564 2.16249 15.9381 0 13.3727 0C11.7056 0 10.0009 0.906453 9.00888 2.0673C9.57471 2.10234 10.1986 2.10305 10.7376 2.27492C11.4618 1.71084 12.3783 1.37534 13.3727 1.37534C15.3585 1.37534 17.1814 3.07376 17.1814 4.08507V6.98799C17.1814 8.06492 16.7826 10.1212 15.5964 11.0545C15.4176 11.1953 15.2765 11.3782 15.1856 11.5869C15.0948 11.7956 15.0571 12.0236 15.076 12.2504C15.0951 12.4771 15.1701 12.6955 15.2943 12.8861C15.4185 13.0767 15.5879 13.2336 15.7875 13.3428L20.1803 15.7404C20.2184 15.7614 20.2669 15.7841 20.3071 15.8016C20.4085 15.8446 20.5333 15.9164 20.6247 15.9796V17.2023H17.8493C18.2683 17.5186 18.3952 17.971 18.5578 18.5773H20.8392C21.4796 18.5773 22 18.0569 22 17.4158V15.695C21.9997 15.011 20.8389 14.5328 20.8389 14.5328L20.8389 14.5328Z" fill="black"/>
</svg>
